<svg width="16" height="16" viewBox="0 0 16 16" fill="none" xmlns="http://www.w3.org/2000/svg">
    <path
        d="M7.03333 1.68798C7.30384 1.46 7.64623 1.33496 8 1.33496C8.35377 1.33496 8.69616 1.46 8.96667 1.68798L13.4667 5.48265C13.8047 5.76798 14 6.18732 14 6.62932V12.836C14 13.1454 13.8771 13.4421 13.6583 13.6609C13.4395 13.8797 13.1428 14.0027 12.8333 14.0027H10.5C10.1906 14.0027 9.89383 13.8797 9.67504 13.6609C9.45625 13.4421 9.33333 13.1454 9.33333 12.836V9.49798C9.33333 9.45378 9.31577 9.41139 9.28452 9.38013C9.25326 9.34888 9.21087 9.33132 9.16667 9.33132H6.83333C6.78913 9.33132 6.74674 9.34888 6.71548 9.38013C6.68423 9.41139 6.66667 9.45378 6.66667 9.49798V12.836C6.66667 13.1454 6.54375 13.4421 6.32496 13.6609C6.10617 13.8797 5.80942 14.0027 5.5 14.0027H3.16667C3.01346 14.0027 2.86175 13.9725 2.7202 13.9138C2.57866 13.8552 2.45004 13.7693 2.34171 13.6609C2.23337 13.5526 2.14744 13.424 2.08881 13.2824C2.03018 13.1409 2 12.9892 2 12.836V6.62932C2 6.18732 2.19533 5.76798 2.53333 5.48265L7.03333 1.68798ZM8.322 2.45265C8.23186 2.37677 8.11782 2.33516 8 2.33516C7.88218 2.33516 7.76814 2.37677 7.678 2.45265L3.178 6.24665C3.12231 6.29353 3.07753 6.352 3.04679 6.41798C3.01604 6.48396 3.00007 6.55586 3 6.62865V12.8353C3 12.9273 3.07467 13.002 3.16667 13.002H5.5C5.5442 13.002 5.5866 12.9844 5.61785 12.9532C5.64911 12.9219 5.66667 12.8795 5.66667 12.8353V9.49732C5.66667 8.85265 6.18933 8.33065 6.83333 8.33065H9.16667C9.81067 8.33065 10.3333 8.85265 10.3333 9.49732V12.8353C10.3333 12.9273 10.408 13.002 10.5 13.002H12.8333C12.8775 13.002 12.9199 12.9844 12.9512 12.9532C12.9824 12.9219 13 12.8795 13 12.8353V6.62865C12.9999 6.55586 12.984 6.48396 12.9532 6.41798C12.9225 6.352 12.8777 6.29353 12.822 6.24665L8.322 2.45265Z"
        fill="#221F22" />
</svg>